<svg xmlns="http://www.w3.org/2000/svg" xmlns:xlink="http://www.w3.org/1999/xlink" version="1.1" width="150px" height="150px" style="shape-rendering:geometricPrecision; text-rendering:geometricPrecision; image-rendering:optimizeQuality; fill-rule:evenodd; clip-rule:evenodd">
  <path style="opacity:1" fill="#1a1a1a" d="M 73.5,27.5 C 86.5642,26.5651 98.8975,29.0651 110.5,35C 115.562,39.8193 119.895,45.1526 123.5,51C 129.222,51.1394 134.889,50.6394 140.5,49.5C 142.829,71.01 134.496,86.8433 115.5,97C 107.908,105.694 103.741,115.86 103,127.5C 102.261,128.574 101.261,129.241 100,129.5C 97.8358,127.71 96.0025,125.544 94.5,123C 83.103,117.867 71.4363,117.2 59.5,121C 55.9723,123.533 52.8056,126.366 50,129.5C 47.8222,127.757 45.6555,126.09 43.5,124.5C 41.0454,124.894 39.0454,126.06 37.5,128C 30.9201,128.628 25.7534,126.128 22,120.5C 20.3599,116.608 19.0265,112.608 18,108.5C 16.8333,109.667 15.6667,110.833 14.5,112C 13.2161,112.684 12.0495,112.517 11,111.5C 9.57642,101.937 11.7431,93.2704 17.5,85.5C 17.1667,85.1667 16.8333,84.8333 16.5,84.5C 14.677,85.7472 12.677,86.4139 10.5,86.5C 11.8099,75.4008 17.4766,67.2341 27.5,62C 25.1902,61.5034 22.8568,61.3367 20.5,61.5C 24.4155,53.4304 30.7488,47.9304 39.5,45C 41.7885,44.1779 44.1218,43.5112 46.5,43C 42.2104,42.1317 41.5437,40.1317 44.5,37C 54.0943,32.6711 64.0943,31.3378 74.5,33C 72.3652,31.4443 72.0319,29.6109 73.5,27.5 Z"/>
  <path style="opacity:1" fill="#ffffff" d="M 38.5,121.5 C 37.5386,119.735 37.2053,117.735 37.5,115.5C 40.4804,104.398 47.1471,96.2312 57.5,91C 68.7561,85.0051 80.7561,82.8385 93.5,84.5C 93.6495,83.448 93.4828,82.448 93,81.5C 87.1655,78.3216 83.6655,73.4882 82.5,67C 83.1587,62.9177 85.492,61.5844 89.5,63C 92.0783,64.6647 94.7449,65.6647 97.5,66C 98.3823,59.2363 101.382,53.5697 106.5,49C 108.39,47.8877 110.39,47.0544 112.5,46.5C 115.499,49.5849 118.832,52.4182 122.5,55C 127.184,55.4614 131.851,55.2947 136.5,54.5C 137.613,68.4378 132.613,79.6045 121.5,88C 108.938,95.5966 101.438,106.763 99,121.5C 91.6798,115.896 83.3465,113.563 74,114.5C 64.4102,113.362 56.4102,116.362 50,123.5C 46.5789,120.464 42.7456,119.797 38.5,121.5 Z"/>
  <path style="opacity:1" fill="#1a1a1a" d="M 108.5,54.5 C 114.704,54.3137 116.037,56.8137 112.5,62C 106.812,61.7902 105.479,59.2902 108.5,54.5 Z"/>
  <path style="opacity:1" fill="#ffffff" d="M 89.5,32.5 C 98.0085,33.0547 105.342,36.2213 111.5,42C 102.626,45.2094 96.7925,51.3761 94,60.5C 83.2395,55.6204 78.2395,58.9537 79,70.5C 79.7542,73.6844 81.2542,76.3511 83.5,78.5C 80.8333,79.1667 78.1667,79.8333 75.5,80.5C 56.5174,83.5576 42.6841,93.5576 34,110.5C 33.036,114.796 32.2026,119.13 31.5,123.5C 25.0177,118.92 21.851,112.587 22,104.5C 20.2041,103.233 18.3707,103.233 16.5,104.5C 15.2462,96.331 17.9129,89.6644 24.5,84.5C 25.4287,83.3112 25.762,81.9778 25.5,80.5C 22.4281,80.8174 19.4281,80.4841 16.5,79.5C 18.9219,74.2443 22.5886,70.0777 27.5,67C 31.4073,65.434 35.074,63.6007 38.5,61.5C 37.91,60.2011 36.91,59.3678 35.5,59C 33.1218,58.4888 30.7885,57.8221 28.5,57C 36.6967,49.5738 46.3634,46.0738 57.5,46.5C 56.8566,43.0125 54.8566,40.5125 51.5,39C 61.1791,35.7034 70.8458,35.8701 80.5,39.5C 84.1464,38.1999 84.4797,36.1999 81.5,33.5C 83.9479,32.5269 86.6146,32.1936 89.5,32.5 Z"/>
</svg>